<svg width="405" height="362" fill="none" xmlns="http://www.w3.org/2000/svg"><g opacity=".15"><path d="M268.401 173.014l-153.523 89.588a2.349 2.349 0 01-3.209-.84L12.944 93.112a2.342 2.342 0 01.841-3.205L167.308.319a2.353 2.353 0 013.209.84l98.725 168.651a2.346 2.346 0 01-.841 3.204z" fill="#fff"/><path d="M268.401 173.014l-153.523 89.588a2.349 2.349 0 01-3.209-.84L12.944 93.112a2.342 2.342 0 01.841-3.205L167.308.319a2.353 2.353 0 013.209.84l98.725 168.651a2.346 2.346 0 01-.841 3.204zM14.259 90.716a1.407 1.407 0 00-.505 1.922l98.725 168.651a1.41 1.41 0 001.926.504l153.522-89.588a1.406 1.406 0 00.505-1.922L169.707 1.633a1.406 1.406 0 00-1.925-.505L14.259 90.716z" fill="#3F3D56"/><path d="M112.944 107.511l-38.077 22.22a2.353 2.353 0 01-3.21-.841L49.404 90.873a2.341 2.341 0 01.842-3.204l38.077-22.22a2.351 2.351 0 013.209.84l22.254 38.018c.314.536.401 1.175.243 1.776a2.35 2.35 0 01-1.084 1.428zM50.718 88.478a1.407 1.407 0 00-.505 1.922l22.255 38.018a1.408 1.408 0 001.925.504l38.077-22.22a1.406 1.406 0 00.505-1.922L90.721 66.763a1.409 1.409 0 00-1.926-.505l-38.077 22.22z" fill="#F2F2F2"/><path d="M104.729 118.544l-38.076 22.22a2.113 2.113 0 01-2.889-.756L41.51 101.991a2.11 2.11 0 01.757-2.884l38.077-22.22a2.117 2.117 0 012.888.757l22.255 38.017a2.106 2.106 0 01-.758 2.883z" fill="url(#paint0_linear)"/><path d="M196.635 89.873L77.543 159.368a2.114 2.114 0 01-2.888-.756 2.103 2.103 0 01.757-2.883l119.092-69.496a2.109 2.109 0 011.601-.22 2.117 2.117 0 011.287.976 2.11 2.11 0 01-.141 2.338c-.167.22-.377.406-.616.546zm-21.421 29.32l-90.332 52.713a2.11 2.11 0 01-3.108-2.355 2.107 2.107 0 01.978-1.285l90.331-52.713a2.112 2.112 0 012.342.141 2.1 2.1 0 01.815 1.393 2.105 2.105 0 01-1.026 2.106zm-5.974-75.19l-52.659 30.73a2.115 2.115 0 01-2.889-.757 2.108 2.108 0 01.758-2.883l52.659-30.73a2.114 2.114 0 013.158 1.534 2.124 2.124 0 01-.41 1.56 2.11 2.11 0 01-.617.546zm-5.803 20.207L123.92 87.27a2.117 2.117 0 01-2.342-.14 2.092 2.092 0 01-.546-.616 2.092 2.092 0 01-.22-1.599 2.103 2.103 0 01.977-1.285l39.518-23.06a2.114 2.114 0 012.888.756 2.107 2.107 0 01-.758 2.884zm47.876 50.738L92.222 184.443a2.114 2.114 0 01-2.888-.756 2.107 2.107 0 01.757-2.884l119.092-69.495a2.114 2.114 0 012.888.756 2.107 2.107 0 01-.758 2.884zm-21.421 29.32l-90.33 52.713a2.116 2.116 0 01-2.343-.141 2.103 2.103 0 01-.405-2.953c.168-.221.377-.406.616-.546l90.332-52.713a2.113 2.113 0 013.157 1.534 2.105 2.105 0 01-1.027 2.106zm36.1-4.245L106.9 209.519a2.115 2.115 0 01-2.888-.756 2.115 2.115 0 01-.219-1.599 2.102 2.102 0 01.977-1.285l119.091-69.496a2.118 2.118 0 012.342.141c.221.167.407.377.546.616a2.092 2.092 0 01.22 1.598 2.117 2.117 0 01-.977 1.285zm7.339 12.538L114.24 222.056a2.12 2.12 0 01-1.601.22 2.128 2.128 0 01-1.288-.976 2.11 2.11 0 01.141-2.338c.168-.22.377-.406.617-.545L231.2 148.921a2.12 2.12 0 011.601-.219 2.104 2.104 0 01.53 3.859z" fill="#CCC"/><path d="M194.819 201.368a45.934 45.934 0 004.453-6.217c1.173-1.978 2.325-4.093 2.584-6.412a6.331 6.331 0 00-1.9-5.413 4.47 4.47 0 00-5.237-.594 5.311 5.311 0 00-2.672 4.748 7.014 7.014 0 003.005 5.319c3.52 2.547 9.017 2.414 12.769.476 4.226-2.183 6.41-7.893 3.09-11.802-.691-.813-1.84.096-1.667.973a4.722 4.722 0 001.857 2.953 4.738 4.738 0 006.443-.795 4.723 4.723 0 001.081-3.316l-1.493.871a11.417 11.417 0 0011.335-1.214c.8-.58 1.514-1.269 2.122-2.047.73-.951 1.957-1.566 2.951-2.252l7.161-4.94c1.053-.727.052-2.458-1.01-1.726l-6.486 4.474c-1.08.746-2.168 1.482-3.242 2.238-.768.539-1.241 1.411-1.939 2.052a9.395 9.395 0 01-9.909 1.673 1.015 1.015 0 00-1.493.871 2.74 2.74 0 01-5.443.644l-1.666.973c2.141 2.521.715 6.389-1.752 8.081-2.76 1.892-6.837 2.22-9.948 1.044a5.866 5.866 0 01-3.455-3.165 3.493 3.493 0 01-.248-2.126 3.496 3.496 0 011.042-1.871 2.51 2.51 0 013.489-.037 4.475 4.475 0 011.189 4.043c-.321 2.003-1.43 3.85-2.461 5.56a42.766 42.766 0 01-3.983 5.538c-.826.976.599 2.382 1.433 1.396z" fill="url(#paint1_linear)"/><path d="M245.144 247.31l-3.665 8.562a3.324 3.324 0 01-3.46 1.994l-25.055-3.022-.139-.017-.087.11a4.448 4.448 0 01-7.927-2.508 4.434 4.434 0 012.64-4.302 4.45 4.45 0 014.964.943c.163.168.313.348.448.539l.077.109.133-.003 22.177-.542.144-.003.069-.127 2.482-4.528 7.199 2.795zm39.492 135.804h-6.821l-3.407-27.582 10.229.001-.001 27.581zm-55.241-25.604l-10.853 25.364-6.272-2.675 7.719-26.701 9.406 4.012zm34.96-92.602l-15.175-1.621.499-8.068 25.858-1.037 4.546 12.406-15.728-1.68-.026.248.026-.248z" fill="#F4F7FA" stroke="#000" stroke-width=".5"/><path d="M252.899 218.784l.076-.025.048-.065 2.968-4.063 14.545.859 2.116 4.732.038.085.084.039 7.757 3.66-1.206 22.371-.001.013.001.012.873 18.58-31.55-1.602-5.928-41.265 10.179-3.331z" fill="#F4F7FA" stroke="#000" stroke-width=".5"/><path d="M244.489 252.112l-10.09-4.03c.18-.753 4.543-18.964 5.131-21.935h0c.583-2.943 2.667-3.793 2.822-3.852l3.942 1.198 1.808 14.187-3.613 14.432zm-4.29 40.295l.24.069h0l.001-.003.003-.009.01-.036.041-.143.159-.548a1457.18 1457.18 0 012.499-8.538c1.494-5.05 3.262-10.914 4.362-14.183l.007-.02.003-.022 1.293-8.549 31.112 3.438.032.049c.062.098.154.244.27.438.232.389.563.97.951 1.733.777 1.525 1.787 3.78 2.714 6.689 1.854 5.819 3.378 14.255 2.048 24.715l-.002.018v.018l1.204 78.708-13.584.695-11.737-79.399-.121-.816-.353.746-20.658 43.649-.005.012-.005.012.236.083-.236-.083v.001l-.001.003-.003.01-.014.039-.055.156-.214.597a159.63 159.63 0 01-.801 2.162 172.034 172.034 0 01-2.743 6.834c-1.104 2.577-2.351 5.276-3.611 7.58-1.265 2.313-2.527 4.199-3.655 5.176l-.046.04-.023.058-5.568 14.194-13.562-2.778 22.36-61.604h0l7.687-21.105.003-.008.002-.009-.24-.069z" fill="#F4F7FA" stroke="#000" stroke-width=".5"/><path d="M281.474 245.019l6.947-3.371 3.797 8.506a3.318 3.318 0 01-.888 3.887l-19.255 16.29-.107.091.022.138a4.44 4.44 0 01-4.785 5.104 4.44 4.44 0 01-3.812-5.863 4.44 4.44 0 014.768-2.955l.132.018.089-.1 14.68-16.605.096-.108-.046-.137-1.638-4.895z" fill="#F4F7FA" stroke="#000" stroke-width=".5"/><path d="M281.629 224.203h0l.01.004c.838.337 1.616 1.406 2.258 3.322h0l.001.003 5.686 16.17-7.793 7.477-5.95-13.973 2.357-9.884 2.497-3.151c.141-.052.29-.078.44-.076.171.001.339.038.494.108z" fill="#F4F7FA" stroke="#000" stroke-width=".5"/><path d="M249.931 209.044v-10.843a14.52 14.52 0 014.262-10.274 14.567 14.567 0 0120.58 0 14.52 14.52 0 014.262 10.274v10.843a1.954 1.954 0 01-1.955 1.951h-25.194a1.958 1.958 0 01-1.955-1.951z" fill="#7247FF"/><path d="M271.912 200.091c0 5.744-4.664 10.402-10.419 10.402-5.755 0-10.419-4.658-10.419-10.402 0-5.745 4.664-10.403 10.419-10.403 5.755 0 10.419 4.658 10.419 10.403z" fill="#F4F7FA" stroke="#000" stroke-width=".5"/><path d="M246.489 199.069a11.494 11.494 0 013.375-8.123 11.53 11.53 0 018.136-3.37h2.172a11.53 11.53 0 018.136 3.37 11.494 11.494 0 013.375 8.123v.217h-4.59l-1.565-4.377-.313 4.377h-2.373l-.789-2.209-.158 2.209h-15.406v-.217z" fill="#7247FF"/><path d="M260.443 212.215a1.928 1.928 0 01-.153-2.042c2.302-4.371 5.524-12.447 1.247-17.428l-.308-.358h12.418v18.615l-11.281 1.987a1.948 1.948 0 01-1.923-.774z" fill="#7247FF"/><path d="M134.044 355.462l-11.994 23.809-6.146-2.193 8.915-24.907 9.225 3.291zm34.437 1.575l-3.268 26.45h-6.527l-.001-26.449 9.796-.001zm-13.124-146.143c1.091 1.074 1.912 2.314 2.227 3.733l-14.727-3.242 2.806-5.536a29.048 29.048 0 011.575.488c1.071.366 2.509.921 3.976 1.679 1.469.757 2.959 1.714 4.143 2.878z" fill="#F4F7FA" stroke="#000" stroke-width=".5"/><path d="M116.59 365.005l21.834-38.553.045-.079-.016-.089-8.226-45.829 34.316-1.123 8.661 46.256-5.401 49.771-11.374.344-1.704-53.323-.491-.059-2.845 10.227-22.137 37.404-12.662-4.947z" fill="#F4F7FA" stroke="#000" stroke-width=".5"/><path d="M125.607 288.506l6.28-29.072.005-.025v-.025l.286-27.043v-.002c0-5.675 1.87-10.611 3.876-14.228a32.46 32.46 0 012.886-4.355c.854-1.079 1.505-1.731 1.739-1.905l.071-.053.022-.086a4.69 4.69 0 012.49-3.057c1.193-.539 2.532-.49 3.609-.288a9.081 9.081 0 011.91.576l.008.004.008.003 9.131 3.418.005.016.003.01.009.028.031.099.111.361.404 1.317 1.406 4.601 4.218 13.813 4.196 13.751 1.381 4.524.386 1.267.102.334.023.076-.001.06-.006.292-.024 1.108-.087 3.965a5742.87 5742.87 0 01-.281 12.108c-.108 4.429-.224 8.893-.33 12.321a376.509 376.509 0 01-.147 4.23c-.022.53-.043.961-.062 1.277-.011.168-.02.297-.029.389l-.006.001-.552.082c-.48.07-1.172.171-2.024.292-1.705.242-4.047.564-6.601.887-5.113.646-11.052 1.289-14.412 1.289-11.455 0-18.951-2.065-19.901-2.326a2.193 2.193 0 00-.099-.027m-.034-.007l.034.007m-.034-.007l.034.007m-.034-.007l.034.007m0 0h0l-.052.244.052-.244zm43.713.037l-.125.019a.231.231 0 01-.018-.035l.143.016zm-2.129-97.357c0 6.75-5.48 12.222-12.241 12.222-6.761 0-12.241-5.472-12.241-12.222 0-6.749 5.48-12.221 12.241-12.221 6.761 0 12.241 5.472 12.241 12.221z" fill="#F4F7FA" stroke="#000" stroke-width=".5"/><path opacity=".2" d="M165.854 250.891l-3.065 13.505-20.759-28.918 23.824 15.413z" fill="#F4F7FA" stroke="#000" stroke-width=".5"/><path d="M209.472 255.023l-.055.044-.002.001a5.125 5.125 0 01-4.208.994 5.107 5.107 0 01-3.465-2.582l-.084-.157-.175.028-18.351 2.933 3.823-8.451 17.091-1.461.043-.003.039-.018a5.145 5.145 0 016.522 2.013 5.124 5.124 0 01-1.178 6.659z" fill="#F4F7FA" stroke="#000" stroke-width=".5"/><path d="M188.129 255.731l-.12-8.421 6.304-.617 1.771 8.897-7.955.141z" fill="#F4F7FA" stroke="#000" stroke-width=".5"/><path d="M170.161 242.617l-.058-.114-9.811-19.107.222-.114-.222.114a8.893 8.893 0 00-4.65-4.211 8.913 8.913 0 00-11.058 3.96 8.876 8.876 0 00-.909 6.201l26.486 13.271zm0 0l.127.019 19.633 2.963 3.054 13.237-32.633-2.901-16.625-26.397-.042-.192 26.486 13.271z" fill="#F4F7FA" stroke="#000" stroke-width=".5"/><path d="M144.344 202.021l10.368.372c.632.022 2.347-6.787 2.572-8.2a3.854 3.854 0 011.425-2.317 3.867 3.867 0 012.603-.802c.776.073 2.733-1.374 4.752-3.088 3.834-3.255 3.635-9.367-.577-12.117a5.807 5.807 0 00-.339-.206c-2.657-1.484-5.765-1.983-8.809-2.021-2.76-.035-5.598.312-8.03 1.617-4.359 2.338-6.679 7.448-6.882 12.384-.204 4.936 1.381 9.763 3.179 14.366" fill="#7247FF"/></g><defs><linearGradient id="paint0_linear" x1="40.874" y1="79.758" x2="108.154" y2="80.231" gradientUnits="userSpaceOnUse"><stop stop-color="#4614E8"/><stop offset="1" stop-color="#BCA7FF"/></linearGradient><linearGradient id="paint1_linear" x1="191.78" y1="171.366" x2="242.955" y2="171.919" gradientUnits="userSpaceOnUse"><stop stop-color="#4614E8"/><stop offset="1" stop-color="#BCA7FF"/></linearGradient></defs></svg>