<svg width="136" height="75" fill="none" xmlns="http://www.w3.org/2000/svg"><g clip-path="url(#clip0)"><path d="M84.106 28.955l.016-.025.01-.027 3.24-8.869 2.759.496-3.15 10.558-6.87 8.036-.066.076.006.1c.018.355-.068.706-.248 1.01l.216.128-.216-.127c-.18.304-.444.546-.759.696a1.727 1.727 0 01-1.931-.302 1.81 1.81 0 01-.454-1.937c.122-.333.34-.62.623-.825.284-.206.62-.32.968-.33l.13-.004.072-.109 5.654-8.545z" fill="#fff" stroke="#000" stroke-width=".5"/><path d="M101.547 9.037c0 3.26-2.971 2.767-6.636 2.767s-6.636.493-6.636-2.767S89.727 0 94.911 0c5.363 0 6.636 5.778 6.636 9.037z" fill="#7247FF"/><path d="M113.53 37.522l.03.052.05.033c.289.189.517.46.655.781a1.804 1.804 0 01-.333 1.939c-.237.254-.542.43-.877.508a1.72 1.72 0 01-1.005-.068 1.751 1.751 0 01-.803-.622 1.797 1.797 0 01-.077-1.967l.086-.144-.101-.134-6.487-8.66-2.471-10.741 2.786-.314 2.668 9.062.008.028.014.026 5.857 10.22zm1.308 34.528l-6.562-18.174 4.218-.593 4.617 18.767h-2.273zM88.652 54.297l4.219.594-6.563 18.173h-2.272l4.616-18.767z" fill="#fff" stroke="#000" stroke-width=".5"/><path d="M100.143 14.45l.029-.002.027-.01h.001l.005-.001.021-.007a5.798 5.798 0 01.391-.11c.259-.064.609-.136.979-.169.372-.033.748-.025 1.066.06.316.083.554.236.693.482.358.636.99 1.963 1.537 3.141a195.054 195.054 0 01.863 1.888l-3.31.504-.31.047.115.291 3.272 8.3.025.064.055.042h0l.002.002.008.006.035.029a9.834 9.834 0 01.656.612 14.963 14.963 0 011.654 2.038c1.254 1.84 2.646 4.662 3.186 8.585a544.965 544.965 0 001.995 13.26l.138.84.008.046-.577.091a219.163 219.163 0 01-9.525 1.273c-5.518.61-11.863 1.058-15.503.48a13.325 13.325 0 01.406-1.677c.157-.486.353-.963.59-1.325.243-.369.495-.57.75-.601l.5-.064-.354-.36c-.24-.243-.322-.455-.335-.627a.835.835 0 01.135-.497c.094-.156.22-.286.326-.38a1.94 1.94 0 01.168-.132l.008-.006h.001v-.001h0l.08-.051.026-.093 3.29-11.989.005-.017.002-.018.727-5.902.005-.041-.008-.041-.245.051.245-.051h0v-.001l-.002-.004-.002-.013-.011-.052-.044-.195a37.027 37.027 0 00-.786-2.92c-.263-.834-.58-1.709-.936-2.453-.352-.732-.762-1.379-1.229-1.708-.722-.51-.99-1.51-1.056-2.46a8.224 8.224 0 01.063-1.688l.004-.026v-.007h0l.053-.308-.313.017-2.988.169c.014-.158.033-.374.06-.63.06-.55.156-1.279.301-2.007.147-.731.34-1.445.592-1.97.125-.263.258-.464.395-.597.134-.13.26-.183.382-.183h2.011l.012-.001 9.636-.922zm17.378 60.015v-2.43h-4.139 0-.001l4.14 2.43zm0 0h-6.682c.038-.63.301-1.226.743-1.674a2.526 2.526 0 011.799-.757l4.14 2.43zm-30.543 0v-2.43H82.84h0l4.14 2.43zm0 0h-6.682c.038-.63.302-1.226.743-1.674a2.527 2.527 0 011.8-.757l4.14 2.43zm12.44-67.526c0 2.367-1.89 4.28-4.215 4.28s-4.215-1.913-4.215-4.28 1.89-4.28 4.215-4.28 4.215 1.913 4.215 4.28z" fill="#fff" stroke="#000" stroke-width=".5"/><path d="M89.73 6.824h1.766l.78-2.213.155 2.213h.844l.454-1.29.091 1.29h6.272a4.83 4.83 0 00-1.384-3.39 4.693 4.693 0 00-3.342-1.405h-.91a4.693 4.693 0 00-3.342 1.404 4.831 4.831 0 00-1.384 3.391z" fill="#7247FF"/><path d="M135.818 75H66.552a.18.18 0 01-.128-.054.186.186 0 010-.261.18.18 0 01.128-.054h69.266a.182.182 0 01.182.184.182.182 0 01-.182.184zM78.22 6.288H0V39.61h78.22V6.288z" fill="#CBCBCB"/><path d="M1.636 37.95h74.948V7.949H1.636V37.95z" fill="#fff"/><path d="M65.034 18.742v12.794a.64.64 0 01-.184.45.623.623 0 01-.443.186h-13.57a.623.623 0 01-.442-.186.642.642 0 01-.184-.45V18.742c0-.168.066-.33.183-.45a.623.623 0 01.443-.186h13.57c.166 0 .326.068.443.187.118.12.184.28.184.45z" fill="#6C63FF"/><path d="M65.034 18.742v12.794a.64.64 0 01-.184.45.623.623 0 01-.443.186h-13.57a.623.623 0 01-.442-.186.642.642 0 01-.184-.45V18.742c0-.168.066-.33.183-.45a.623.623 0 01.443-.186h13.57c.166 0 .326.068.443.187.118.12.184.28.184.45z" fill="url(#paint0_linear)"/><path d="M58.58 32.237h-1.917a.614.614 0 01-.44-.178.633.633 0 01-.187-.442V18.346a.633.633 0 01.188-.442.615.615 0 01.44-.178h1.917a.615.615 0 01.44.178.633.633 0 01.187.442v13.271a.633.633 0 01-.188.442.615.615 0 01-.44.178zm-1.353-18.135c.986.865.675 2.868.675 2.868s-1.91.6-2.895-.266c-.985-.865-.674-2.868-.674-2.868s1.909-.6 2.894.266z" fill="#3F3D56"/><path d="M60.5 16.538c-.85 1.003-2.824.693-2.824.693s-.597-1.935.253-2.937c.85-1.003 2.825-.693 2.825-.693s.596 1.935-.253 2.937z" fill="#3F3D56"/><path opacity=".2" d="M65.034 18.742v2.154l-14.823-.063v-2.09c0-.17.066-.33.183-.45a.623.623 0 01.443-.187h13.57c.166 0 .326.068.443.187.118.12.184.28.184.45z" fill="#000"/><path d="M66.63 20.052a.628.628 0 01-.5.25l-16.52-.07a.622.622 0 01-.578-.395.646.646 0 01-.047-.243l.008-1.87a.64.64 0 01.185-.45.623.623 0 01.444-.184l16.52.07a.62.62 0 01.443.188.638.638 0 01.181.45l-.008 1.871a.638.638 0 01-.128.383z" fill="#6C63FF"/><path d="M66.63 20.052a.628.628 0 01-.5.25l-16.52-.07a.622.622 0 01-.578-.395.646.646 0 01-.047-.243l.008-1.87a.64.64 0 01.185-.45.623.623 0 01.444-.184l16.52.07a.62.62 0 01.443.188.638.638 0 01.181.45l-.008 1.871a.638.638 0 01-.128.383z" fill="url(#paint1_linear)"/><path d="M56.076 16.968l-.013 3.366 3.171.013.013-3.367-3.17-.012z" fill="#3F3D56"/><path d="M29.88 17.92H11.543v1.486H29.88v-1.485z" fill="#E5E5E5"/><path d="M39.86 23.339H11.543v1.485H39.86V23.34z" fill="url(#paint2_linear)"/><path d="M34.62 28.443H11.544v1.485H34.62v-1.485z" fill="#E5E5E5"/><path d="M22.95 64.283a4.344 4.344 0 004.25-.76c1.489-1.268 1.956-3.356 2.336-5.29l1.123-5.72-2.352 1.642c-1.692 1.182-3.421 2.401-4.592 4.113-1.171 1.711-1.682 4.048-.742 5.9" fill="#E6E6E6"/><path d="M23.312 71.607c-.296-2.188-.6-4.405-.392-6.616.184-1.965.775-3.883 1.978-5.456a8.992 8.992 0 012.295-2.11c.23-.147.44.222.212.368a8.6 8.6 0 00-3.364 4.118c-.733 1.89-.85 3.95-.724 5.957.076 1.215.238 2.42.401 3.625a.224.224 0 01-.022.16.218.218 0 01-.125.102.209.209 0 01-.16-.02.214.214 0 01-.099-.129z" fill="#F2F2F2"/><path d="M25.443 68.095c.306.472.726.856 1.221 1.115a3.203 3.203 0 001.603.364c1.43-.069 2.62-1.08 3.693-2.041l3.173-2.843-2.1-.102c-1.51-.073-3.059-.142-4.497.331-1.438.473-2.765 1.61-3.028 3.12" fill="#E6E6E6"/><path d="M22.475 72.864c1.426-2.558 3.079-5.401 6.033-6.31a6.637 6.637 0 012.537-.266c.27.024.202.445-.067.421a6.186 6.186 0 00-4.049 1.087c-1.142.788-2.03 1.885-2.783 3.047-.46.712-.874 1.454-1.286 2.195-.132.237-.518.066-.385-.174z" fill="#F2F2F2"/><path d="M38.01 73.34H13.285a.18.18 0 01-.129-.054.186.186 0 010-.26.18.18 0 01.129-.055H38.01a.18.18 0 01.128.054.186.186 0 01-.128.315z" fill="#CBCBCB"/></g><defs><linearGradient id="paint0_linear" x1="50.131" y1="18.796" x2="65.581" y2="18.91" gradientUnits="userSpaceOnUse"><stop stop-color="#4614E8"/><stop offset="1" stop-color="#BCA7FF"/></linearGradient><linearGradient id="paint1_linear" x1="48.889" y1="17.247" x2="67.395" y2="17.965" gradientUnits="userSpaceOnUse"><stop stop-color="#4614E8"/><stop offset="1" stop-color="#BCA7FF"/></linearGradient><linearGradient id="paint2_linear" x1="11.39" y1="23.412" x2="40.387" y2="27.288" gradientUnits="userSpaceOnUse"><stop stop-color="#4614E8"/><stop offset="1" stop-color="#BCA7FF"/></linearGradient><clipPath id="clip0"><path fill="#fff" d="M0 0h136v75H0z"/></clipPath></defs></svg>