<svg width="143" height="104" fill="none" xmlns="http://www.w3.org/2000/svg"><g clip-path="url(#clip0)"><path d="M91.127 77.966v25.07H28.526c-7.133 0-12.936-5.623-12.936-12.535s5.803-12.535 12.936-12.535h62.6z" fill="#F2F2F2"/><path d="M92.664 102.843a.964.964 0 01-.96.964H27.41c-3.492 0-6.84-1.392-9.31-3.87a13.233 13.233 0 01-3.856-9.34c0-3.504 1.387-6.864 3.856-9.341a13.144 13.144 0 019.31-3.87h64.292a.96.96 0 01.961.965.966.966 0 01-.96.964H27.41a11.225 11.225 0 00-7.95 3.305 11.3 11.3 0 00-3.294 7.977c0 2.992 1.185 5.861 3.293 7.977a11.224 11.224 0 007.951 3.304h64.292a.967.967 0 01.961.965z" fill="url(#paint0_linear)"/><path d="M91.127 83.75H23.855a.192.192 0 01-.192-.192.193.193 0 01.192-.193h67.272a.192.192 0 01.192.193.193.193 0 01-.192.193zm0 4.63H23.855a.192.192 0 01-.192-.193.193.193 0 01.192-.193h67.272a.192.192 0 01.192.193.193.193 0 01-.192.193zm0 4.628H23.855a.192.192 0 01-.192-.193.193.193 0 01.192-.193h67.272a.192.192 0 01.192.193.193.193 0 01-.192.193zm0 4.628H23.855a.192.192 0 01-.192-.193.193.193 0 01.192-.193h67.272a.192.192 0 01.192.193.193.193 0 01-.192.193z" fill="#CCC"/><path d="M139.508 82.685l-15.677 19.521-48.746-39.408c-5.554-4.49-6.556-12.522-2.234-17.904s12.357-6.108 17.911-1.618l48.746 39.409z" fill="#F2F2F2"/><path d="M124.503 103.378l-.027-.249a.711.711 0 00.631-.786.713.713 0 00-.261-.48l-.343 1.515zm0 0l-.027-.249a.71.71 0 01-.521-.153L73.891 62.502a12.991 12.991 0 01-1.954-18.224 12.886 12.886 0 0118.16-1.96l50.065 40.474h0a.727.727 0 01.261.48.706.706 0 01-.153.525.716.716 0 01-.478.262.706.706 0 01-.522-.154h0L89.207 43.43s0 0 0 0a11.482 11.482 0 00-8.443-2.49 11.467 11.467 0 00-4.28 1.345 11.502 11.502 0 00-3.443 2.887 11.545 11.545 0 00-2.477 8.47 11.556 11.556 0 004.219 7.746s0 0 0 0l50.063 40.474-.343 1.515z" stroke="#000" stroke-width=".5"/><path d="M135.89 87.19L83.507 44.84a.193.193 0 01.241-.3l52.383 42.349c.02.015.036.035.049.057a.2.2 0 01.015.147.205.205 0 01-.034.067.198.198 0 01-.13.07.19.19 0 01-.141-.042zm-2.894 3.603L80.613 48.444a.193.193 0 01.241-.3l52.383 42.349a.203.203 0 01.071.13.19.19 0 01-.042.141.192.192 0 01-.27.03zm-2.894 3.605L77.719 52.049a.193.193 0 01.1-.342c.05-.005.101.01.14.042l52.384 42.349a.186.186 0 01.07.13.19.19 0 01-.099.189.19.19 0 01-.212-.02zm-2.895 3.603L74.824 55.653a.193.193 0 01.242-.3L127.449 97.7a.199.199 0 01.048.058c.012.022.02.046.022.072a.19.19 0 01-.17.212.194.194 0 01-.142-.042zM142.808 104H.192a.192.192 0 010-.386h142.616a.193.193 0 010 .386z" fill="#CCC"/><path d="M64.731 67.076v8.004h-1.726l-.984-8.004h2.71z" fill="#F4F7FA" stroke="#000" stroke-width=".5"/><path d="M61.214 74.95H65.2v2.177h-6.393a2.433 2.433 0 011.48-1.992 2.41 2.41 0 01.926-.185zm-18.931-7.874v8.004h-1.727l-.984-8.004h2.71z" fill="#F4F7FA" stroke="#000" stroke-width=".5"/><path d="M38.765 74.95h3.988v2.177H36.36a2.436 2.436 0 01.696-1.466 2.417 2.417 0 011.71-.71z" fill="#F4F7FA" stroke="#000" stroke-width=".5"/><path d="M49.871 12.252v-.964a6.23 6.23 0 011.816-4.398 6.188 6.188 0 018.766 0 6.23 6.23 0 011.816 4.398v.964c0 1.19-.471 2.33-1.31 3.17a4.461 4.461 0 01-3.16 1.314H54.34a4.456 4.456 0 01-3.16-1.314 4.485 4.485 0 01-1.309-3.17z" fill="#7247FF"/><path d="M60.54 12.331a4.479 4.479 0 01-4.47 4.487 4.479 4.479 0 01-4.47-4.487 4.479 4.479 0 014.47-4.486 4.479 4.479 0 014.47 4.486zM30.073 29.792a1.57 1.57 0 01.474-.985l.017-.016a1.552 1.552 0 011.882-.192c.193.12.357.28.482.471l.091.14.165-.031 3.853-.731.851 1.88-5.413.949-.042.007-.038.021a1.557 1.557 0 01-2.027-.438 1.573 1.573 0 01-.295-1.075z" fill="#F4F7FA" stroke="#000" stroke-width=".5"/><mask id="a" fill="#fff"><path d="M52.39 20.05l.053.081-6.636 4.386-11.198 3.588a.674.674 0 00-.464.72l.245 2.112a.677.677 0 00.53.583.67.67 0 00.279-.001l10.538-2.266a3.8 3.8 0 001.417-.626l7.455-5.322a1.93 1.93 0 00-.272-3.298 1.912 1.912 0 00-1.895.124l-.053-.08z"/></mask><path d="M52.39 20.05l.053.081-6.636 4.386-11.198 3.588a.674.674 0 00-.464.72l.245 2.112a.677.677 0 00.53.583.67.67 0 00.279-.001l10.538-2.266a3.8 3.8 0 001.417-.626l7.455-5.322a1.93 1.93 0 00-.272-3.298 1.912 1.912 0 00-1.895.124l-.053-.08z" fill="#F4F7FA"/><path d="M52.39 20.05l.417-.274-.835.55.417-.275zm.053.081l.275.417.416-.275-.274-.417-.417.275zm-6.636 4.386l.152.477.066-.021.057-.038-.276-.418zm-11.198 3.588l-.153-.476.153.476zm-.464.72l-.496.058.496-.057zm.245 2.112l-.497.057.497-.057zm.809.582l.105.489-.105-.489zm10.538-2.266l-.104-.49.104.49zm1.417-.626l-.29-.407.29.407zm7.455-5.322l.29.407.002-.001-.292-.406zm.8-1.726l.498-.04-.498.04zm-2.967-1.448l-.417.275.275.419.418-.277-.276-.417zm-.47.195l.053.08.835-.55-.053-.08-.835.55zm.195-.612L45.53 24.1l.551.834 6.636-4.386-.551-.834zm-6.513 4.327L34.456 27.63l.305.952 11.198-3.587-.305-.953zM34.455 27.63c-.258.083-.48.254-.627.483l.841.54a.174.174 0 01.093-.071l-.306-.952zm-.627.483c-.147.228-.21.5-.18.77l.994-.113a.179.179 0 01.027-.116l-.84-.541zm-.18.771l.245 2.111.993-.115-.244-2.11-.993.114zm.245 2.111c.019.163.071.32.154.46l.862-.506a.176.176 0 01-.023-.069l-.993.115zm.154.46c.083.142.194.264.327.36l.584-.812a.174.174 0 01-.049-.054l-.862.507zm.327.36c.133.095.284.162.444.195l.205-.979a.172.172 0 01-.065-.028l-.584.811zm.444.195c.16.034.326.033.486-.001l-.21-.978a.172.172 0 01-.071 0l-.205.98zm.486-.001l10.538-2.267-.21-.977-10.538 2.266.21.978zm10.538-2.267a4.301 4.301 0 001.603-.708l-.582-.813a3.3 3.3 0 01-1.23.544l.209.977zm1.603-.707l7.455-5.322-.581-.814-7.455 5.322.58.814zM54.9 23.71a2.43 2.43 0 00.788-.953l-.907-.42a1.431 1.431 0 01-.464.56l.583.813zm.788-.953c.176-.38.251-.8.218-1.218l-.997.079a1.43 1.43 0 01-.128.718l.907.42zm.218-1.22a2.429 2.429 0 00-.414-1.169l-.826.564c.14.204.223.44.243.687l.997-.082zm-.414-1.169a2.42 2.42 0 00-.937-.811l-.439.899c.221.108.41.271.55.476l.826-.564zm-.937-.811a2.412 2.412 0 00-1.215-.24l.065.998c.245-.015.49.033.711.14l.439-.898zm-1.215-.24c-.42.028-.824.164-1.174.396l.551.834c.206-.136.443-.215.688-.231l-.065-.998zm-.48.538l-.054-.08-.835.55.053.08.835-.55z" fill="#000" mask="url(#a)"/><path d="M52.186 47.329h0l-.003-.006a.538.538 0 00-1.007.053l-8.217 24.31h0l-.002.006a.619.619 0 01-.558.436.613.613 0 01-.246-.039s0 0 0 0l-2.756-1.037h0a.613.613 0 01-.396-.508h0c-.305-2.668.13-6.377.97-10.465.84-4.081 2.075-8.516 3.355-12.626a242.052 242.052 0 015.292-15.132l9.57 2.125c.45.508.905 1.355 1.358 2.486.46 1.152.909 2.576 1.34 4.188.863 3.224 1.653 7.18 2.34 11.177 1.375 7.992 2.334 16.123 2.638 18.82v.001a.616.616 0 01-.406.65v.001l-2.433.863h0a.604.604 0 01-.54-.066.62.62 0 01-.227-.267l-10.072-24.97z" fill="#F4F7FA" stroke="#000" stroke-width=".5"/><path d="M49.51 29.34c.46.342-.395 2.158-1.042 3.223l-.026.042 1.068-3.264zm0 0c-.905-.67-1.344-1.775-1.305-3.283.084-3.271 2.306-6.176 5.529-7.228L49.51 29.341zm1.379 5.038c-1-.344-1.782-.898-2.166-1.753.319-.534.68-1.235.915-1.857.121-.322.214-.637.243-.903a1.184 1.184 0 00-.014-.387.566.566 0 00-.208-.338h0c-.819-.608-1.242-1.62-1.204-3.076.081-3.16 2.228-5.975 5.353-6.996h.002c.89-.287 1.796-.52 2.714-.702h0a4.401 4.401 0 013.663.907h0a4.476 4.476 0 011.656 3.448h0c.034 3.485-.505 8.276-3.193 11.548a.604.604 0 01-.358.209h0a23.163 23.163 0 01-3.962.371c-1.181 0-2.412-.118-3.441-.471z" fill="#F4F7FA" stroke="#000" stroke-width=".5"/><path d="M53.683 35.037v-.001c.113-.405.38-.748.743-.956a1.582 1.582 0 011.195-.155c.082.023.161.053.238.089l.152.07.123-.112 2.927-2.673 1.707 1.154-4.153 3.688-.032.028-.02.038a1.585 1.585 0 01-1.795.764 1.552 1.552 0 01-.944-.74 1.566 1.566 0 01-.14-1.194z" fill="#F4F7FA" stroke="#000" stroke-width=".5"/><path d="M58.551 34.754h0a.61.61 0 01-.388-.14h0l-1.212-.993a.618.618 0 01.015-.97h0l5.082-3.91h0a.54.54 0 00.102-.752h0l-3.137-4.162h0a2.318 2.318 0 01.154-2.979v-.001a2.293 2.293 0 013.083-.263l3.263 4.687.02.03.03.024a2.678 2.678 0 011.023 2.15 2.687 2.687 0 01-1.086 2.117h0l-.004.002-6.58 5.04a.615.615 0 01-.364.12z" fill="#F4F7FA" stroke="#000" stroke-width=".5"/><path d="M51.888 10.998v-2.35l4.182-1.832 3.987 1.832v2.35a.387.387 0 01-.384.386h-7.4a.384.384 0 01-.385-.386z" fill="#7247FF"/><path d="M55.878 5.38c-.615-1.974.676-4.237 2.585-5.018 1.91-.782 4.193-.236 5.804 1.056 1.61 1.29 2.61 3.225 3.14 5.224.529 2 .63 4.084.727 6.15 2.345.432 3.94 3.223 3.128 5.473-.812 2.25-3.82 3.367-5.896 2.191-2.077-1.176-2.678-4.336-1.18-6.197A5.096 5.096 0 0064.3 8.01a5.053 5.053 0 00-6.01-1.64c-1.157.485-2.607-.775-2.411-.99z" fill="#7247FF"/><path d="M29.525 19.494a20.02 20.02 0 01-8.14-1.79.86.86 0 01-.509-.79V9.89a.87.87 0 01.865-.868H37.31a.865.865 0 01.864.868v7.023a.864.864 0 01-.51.792 20.018 20.018 0 01-8.139 1.789z" fill="url(#paint1_linear)"/><path d="M29.523 13.804a.863.863 0 01-.336-.068L16.841 8.51a.865.865 0 01-.528-.815.87.87 0 01.558-.796L29.217 2.2a.86.86 0 01.617.002L42.014 6.9a.865.865 0 01.555.794.87.87 0 01-.525.814l-12.18 5.226a.863.863 0 01-.34.07z" fill="url(#paint2_linear)"/><path d="M22.318 18.182c.637 0 1.153-.518 1.153-1.157s-.516-1.157-1.153-1.157-1.154.518-1.154 1.157c0 .64.517 1.157 1.154 1.157z" fill="#3F3D56"/><path opacity=".2" d="M42.086 7.767l-12.18 5.226a.765.765 0 01-.602.002L16.96 7.769a.755.755 0 01-.368-.325.772.772 0 00.368 1.096l12.345 5.226a.765.765 0 00.601-.002l12.181-5.226a.768.768 0 00.463-.786.77.77 0 00-.099-.308.755.755 0 01-.364.323z" fill="#000"/><path d="M22.415 17.021a.192.192 0 00.192-.192v-6.453l6.339-2.317a.192.192 0 00.195-.19.193.193 0 00-.19-.196L22.614 9.99a.375.375 0 00-.276.11.382.382 0 00-.115.276v6.453a.194.194 0 00.193.192z" fill="#3F3D56"/></g><defs><linearGradient id="paint0_linear" x1="13.822" y1="78.681" x2="95.524" y2="80.382" gradientUnits="userSpaceOnUse"><stop stop-color="#4614E8"/><stop offset="1" stop-color="#BCA7FF"/></linearGradient><linearGradient id="paint1_linear" x1="20.783" y1="9.536" x2="38.811" y2="9.744" gradientUnits="userSpaceOnUse"><stop stop-color="#4614E8"/><stop offset="1" stop-color="#BCA7FF"/></linearGradient><linearGradient id="paint2_linear" x1="16.171" y1="2.715" x2="43.531" y2="3.147" gradientUnits="userSpaceOnUse"><stop stop-color="#4614E8"/><stop offset="1" stop-color="#BCA7FF"/></linearGradient><clipPath id="clip0"><path fill="#fff" d="M0 0h143v104H0z"/></clipPath></defs></svg>