<svg width="136" height="92" fill="none" xmlns="http://www.w3.org/2000/svg"><g clip-path="url(#clip0)"><path d="M133.568 83.662c-.93 3.195-3.647 5.432-6.481 7.332-.396.265-.792.524-1.188.777l-.008.005a2.365 2.365 0 00-.056.037l-.244.155.044.02s.044.023-.004.004l-.043-.017c-1.647-.657-3.322-1.363-4.584-2.594-1.309-1.28-2.074-3.284-1.365-4.964.093-.22.211-.43.351-.624a3.18 3.18 0 01.184-.235c.39-.473.901-.833 1.48-1.045a3.506 3.506 0 013.456.605c.47.395.825.908 1.028 1.484.208-1.919-1.39-3.526-2.928-4.712-1.539-1.185-3.288-2.476-3.586-4.385-.166-1.061.207-2.09.887-2.916a5.085 5.085 0 013.321-1.804c2.36-.243 4.652.993 6.366 2.617 2.76 2.613 4.428 6.627 3.37 10.26z" fill="#F2F2F2"/><path d="M129.132 79.483a8.498 8.498 0 011.033 2.254c.195.712.283 1.45.258 2.187a9.41 9.41 0 01-1.255 4.318 13.68 13.68 0 01-2.081 2.752c-.396.266-.792.525-1.188.778l-.008.005-.056.036-.244.156s.088.043.04.024l-.043-.017a7.478 7.478 0 00-.422-3.544 7.545 7.545 0 00-2.018-2.956 7.715 7.715 0 00-3.158-1.682 3.2 3.2 0 01.184-.236c.452.126.893.291 1.316.493a7.782 7.782 0 013.533 3.372 7.83 7.83 0 01.869 4.339c.068-.06.136-.123.202-.184 1.251-1.155 2.362-2.48 3.114-4.01a8.761 8.761 0 00.934-4.175c-.062-1.578-.697-3.04-1.616-4.311a18.573 18.573 0 00-3.538-3.61 21.265 21.265 0 00-4.401-2.689.151.151 0 01-.076-.193.127.127 0 01.063-.075.115.115 0 01.098.004 21.445 21.445 0 015.01 3.165c1.305 1.101 2.533 2.359 3.45 3.8z" fill="#fff"/><path d="M113.402 0H1.606C1.18 0 .772.168.471.466A1.582 1.582 0 000 1.59v74.985c0 .421.17.826.47 1.124.302.298.71.465 1.136.466h111.796a1.616 1.616 0 001.256-.602 1.49 1.49 0 00.23-.385 1.54 1.54 0 00.122-.603V1.59a1.584 1.584 0 00-.472-1.125A1.615 1.615 0 00113.402 0zm1.149 76.575c0 .222-.066.439-.19.623a1.153 1.153 0 01-.959.512H1.606c-.304 0-.596-.12-.811-.332a1.131 1.131 0 01-.336-.803V1.59c0-.301.12-.59.336-.803.215-.213.507-.333.811-.333h111.796c.304 0 .596.12.812.332.215.213.337.502.337.804v74.985z" fill="#3F3D56"/><path d="M114.779 6.371H.229v.455h114.55V6.37z" fill="#3F3D56"/><path d="M5.259 3.408A1.12 1.12 0 014.13 4.522a1.12 1.12 0 01-1.127-1.114A1.12 1.12 0 014.13 2.295c.625 0 1.128.5 1.128 1.113zm3.96 0A1.12 1.12 0 018.09 4.522a1.12 1.12 0 01-1.127-1.114A1.12 1.12 0 018.09 2.295c.626 0 1.128.5 1.128 1.113zm3.959 0a1.12 1.12 0 01-1.127 1.114 1.12 1.12 0 01-1.127-1.114 1.12 1.12 0 011.127-1.113c.625 0 1.127.5 1.127 1.113z" stroke="#000" stroke-width=".5"/><path d="M74.189 31.969a3.743 3.743 0 01-2.064-.62 3.687 3.687 0 01-1.369-1.65 3.643 3.643 0 01-.211-2.125 3.666 3.666 0 011.017-1.884 3.751 3.751 0 014.05-.797c.678.279 1.258.75 1.666 1.355.409.605.627 1.316.627 2.043a3.663 3.663 0 01-1.09 2.6 3.74 3.74 0 01-2.626 1.078zm0-7.007c-.665 0-1.315.195-1.869.56a3.337 3.337 0 00-1.238 1.495 3.298 3.298 0 00.729 3.628 3.395 3.395 0 003.666.722 3.356 3.356 0 001.509-1.226c.37-.548.567-1.191.567-1.85a3.317 3.317 0 00-.987-2.353 3.385 3.385 0 00-2.377-.976z" fill="#6C63FF"/><path d="M73.838 29.628a.37.37 0 01-.22-.073l-.005-.003-.831-.63a.366.366 0 01.176-.653.372.372 0 01.273.072l.54.41 1.272-1.645a.37.37 0 01.39-.13.37.37 0 01.128.062l-.007.011.008-.01a.365.365 0 01.068.512l-1.497 1.933a.37.37 0 01-.294.143z" fill="#6C63FF"/><path d="M84.82 31.969a3.742 3.742 0 01-2.064-.62 3.686 3.686 0 01-1.368-1.65 3.643 3.643 0 01-.212-2.125 3.666 3.666 0 011.017-1.884 3.75 3.75 0 014.05-.797c.678.279 1.259.75 1.667 1.355.408.605.626 1.316.626 2.043a3.664 3.664 0 01-1.09 2.6 3.74 3.74 0 01-2.625 1.078zm0-7.007c-.665 0-1.315.195-1.868.56a3.336 3.336 0 00-1.239 1.495 3.298 3.298 0 00.73 3.628c.47.466 1.069.783 1.721.911a3.395 3.395 0 001.944-.189 3.356 3.356 0 001.51-1.226 3.31 3.31 0 00.566-1.85 3.316 3.316 0 00-.986-2.353 3.385 3.385 0 00-2.377-.976z" fill="#E6E6E6"/><path d="M86.158 29.563a.24.24 0 01-.336 0l-.892-.882a.107.107 0 00-.15 0l-.891.882a.24.24 0 01-.337 0 .234.234 0 010-.333l.892-.882a.105.105 0 000-.149l-.892-.882a.234.234 0 01.168-.402.24.24 0 01.169.069l.891.883a.107.107 0 00.15 0l.892-.883a.24.24 0 01.406.166.234.234 0 01-.07.167l-.892.883a.105.105 0 000 .148l.892.882a.235.235 0 010 .333z" fill="#E6E6E6"/><path d="M74.189 43.646a3.743 3.743 0 01-2.064-.62 3.687 3.687 0 01-1.369-1.65 3.643 3.643 0 01-.211-2.126 3.666 3.666 0 011.017-1.883 3.751 3.751 0 014.05-.797c.678.278 1.258.75 1.666 1.355.409.604.627 1.316.627 2.043a3.663 3.663 0 01-1.09 2.6 3.74 3.74 0 01-2.626 1.078zm0-7.007c-.665 0-1.315.195-1.869.56a3.337 3.337 0 00-1.238 1.495 3.298 3.298 0 00.729 3.628 3.395 3.395 0 003.666.722 3.356 3.356 0 001.509-1.226c.37-.548.567-1.192.567-1.85a3.317 3.317 0 00-.987-2.353 3.385 3.385 0 00-2.377-.976z" fill="#6C63FF"/><path d="M73.838 41.304a.37.37 0 01-.22-.072l-.005-.003-.831-.63a.365.365 0 01.176-.653.372.372 0 01.273.072l.54.409 1.272-1.644a.371.371 0 01.518-.068l-.007.011.008-.01a.365.365 0 01.068.512l-1.497 1.933a.37.37 0 01-.294.143z" fill="#6C63FF"/><path d="M84.82 43.646a3.743 3.743 0 01-2.064-.62 3.686 3.686 0 01-1.368-1.65 3.643 3.643 0 01-.212-2.126 3.665 3.665 0 011.017-1.883 3.727 3.727 0 011.903-1.006 3.75 3.75 0 012.147.209c.678.278 1.259.75 1.667 1.355.408.604.626 1.316.626 2.043a3.663 3.663 0 01-1.09 2.6 3.74 3.74 0 01-2.625 1.078zm0-7.007c-.665 0-1.315.195-1.868.56a3.336 3.336 0 00-1.239 1.495 3.298 3.298 0 00.73 3.628c.47.466 1.069.783 1.721.911a3.395 3.395 0 001.944-.19 3.356 3.356 0 001.51-1.225 3.312 3.312 0 00.566-1.85 3.316 3.316 0 00-.986-2.353 3.385 3.385 0 00-2.377-.976z" fill="#E6E6E6"/><path d="M86.158 41.24a.24.24 0 01-.336 0l-.892-.883a.107.107 0 00-.15 0l-.892.883a.239.239 0 01-.406-.166c0-.063.025-.123.07-.167l.892-.882a.104.104 0 000-.149l-.892-.882a.234.234 0 01.168-.402.24.24 0 01.168.069l.892.882a.107.107 0 00.15 0l.891-.882a.239.239 0 01.407.166.234.234 0 01-.07.167l-.892.882a.104.104 0 000 .149l.892.882a.235.235 0 010 .333zM74.189 55.322a3.743 3.743 0 01-2.064-.62 3.687 3.687 0 01-1.369-1.65 3.643 3.643 0 01-.211-2.126 3.666 3.666 0 011.017-1.883 3.751 3.751 0 014.05-.797c.678.278 1.258.75 1.666 1.354.409.605.627 1.316.627 2.044a3.663 3.663 0 01-1.09 2.6 3.74 3.74 0 01-2.626 1.078zm0-7.008c-.665 0-1.315.196-1.869.562a3.337 3.337 0 00-1.238 1.494 3.298 3.298 0 00.729 3.628 3.395 3.395 0 003.666.722 3.356 3.356 0 001.509-1.227c.37-.547.567-1.19.567-1.85a3.317 3.317 0 00-.987-2.352 3.385 3.385 0 00-2.377-.977z" fill="#E6E6E6"/><path d="M73.838 52.981a.369.369 0 01-.22-.073l-.005-.003-.831-.63a.366.366 0 01-.069-.512.371.371 0 01.518-.068l.54.409 1.272-1.644a.37.37 0 01.39-.131.37.37 0 01.128.063l-.007.01.008-.01a.365.365 0 01.068.513l-1.497 1.933a.37.37 0 01-.294.143zm10.982 2.341a3.743 3.743 0 01-2.064-.62 3.686 3.686 0 01-1.368-1.65 3.643 3.643 0 01-.212-2.126 3.666 3.666 0 011.017-1.883 3.75 3.75 0 014.05-.797c.678.278 1.259.75 1.667 1.354.408.605.626 1.316.626 2.044a3.663 3.663 0 01-1.09 2.6 3.74 3.74 0 01-2.625 1.078zm0-7.008c-.665 0-1.315.196-1.868.562a3.336 3.336 0 00-1.239 1.494 3.298 3.298 0 00.73 3.628c.47.465 1.069.783 1.721.911a3.395 3.395 0 001.944-.19 3.356 3.356 0 001.51-1.226c.369-.547.566-1.19.566-1.85a3.316 3.316 0 00-.986-2.352 3.385 3.385 0 00-2.377-.977z" fill="#E6E6E6"/><path d="M86.158 52.917a.24.24 0 01-.336 0l-.892-.883a.107.107 0 00-.15 0l-.892.883a.24.24 0 01-.406-.167c0-.062.025-.122.07-.166l.892-.883a.105.105 0 000-.148l-.892-.883a.234.234 0 01.168-.401.24.24 0 01.168.069l.892.882a.106.106 0 00.15 0l.891-.883a.239.239 0 01.406.167.234.234 0 01-.07.166l-.89.883a.105.105 0 000 .148l.89.883a.234.234 0 010 .333z" fill="#E6E6E6"/><path d="M135.816 91.947H65.644a.185.185 0 01-.13-.054.181.181 0 01.13-.311h70.172a.19.19 0 01.13.053.18.18 0 010 .258.185.185 0 01-.13.054z" fill="#3F3D56"/><path d="M75.763 41.978l-.021-.012c-.33-.2-.575-.511-.692-.876a1.576 1.576 0 01.064-1.128c.16-.356.447-.642.807-.804a1.63 1.63 0 011.145-.07l.04.012.043-.001 5.827-.231 1.465 2.366-6.112-.202-.177-.005-.064.165a1.582 1.582 0 01-.976.93 1.621 1.621 0 01-1.35-.144zm36.772 14.152l-.001.001a1.627 1.627 0 01-2.124.277 1.594 1.594 0 01-.658-.926 1.576 1.576 0 01.13-1.123l.02-.039.006-.043.79-5.716 2.615-1.015-1.27 5.92-.038.175.154.092a1.587 1.587 0 01.754 1.112 1.565 1.565 0 01-.378 1.285zM97.064 81.136v8.12h-1.788l-1.011-8.12h2.799z" fill="#F4F7FA" stroke="#000" stroke-width=".5"/><path d="M93.443 89.026h4.197v2.397h-6.776a2.532 2.532 0 01.75-1.647 2.585 2.585 0 011.829-.75h0zm14.672-7.89l-.001 8.12h-1.787l-1.012-8.12h2.8z" fill="#F4F7FA" stroke="#000" stroke-width=".5"/><path d="M104.494 89.026h4.196v2.397h-6.775c.017-.281.082-.558.191-.819a2.57 2.57 0 011.398-1.383c.313-.128.65-.195.989-.195h.001zm4.235-33.762l.539 28.476m-.539-28.476l-.044-.026c-3.932-2.317-8.566-2.47-14.169-.463l14.752 28.965m-.539-28.476l-.06.001-.111.188.043.026.128-.215zm.539 28.476a.81.81 0 01-.059.319l.059-.319zm-.787-28.331c-3.81-2.213-8.306-2.373-13.779-.435l-.895 29.066s0 0 0 0a.568.568 0 00.155.406.59.59 0 00.401.183l3.194.126s0 0 0 0h.025v.25M108.48 55.41l-7.321 9.856a.28.28 0 00-.359.013.275.275 0 00-.087.168l-.248-.03h0l-2.31 18.836s0 0 0 0a.572.572 0 01-.19.358.588.588 0 01-.386.145l.002.25M108.48 55.41l.537 28.336h0a.556.556 0 01-.165.41.57.57 0 01-.414.171h-2.694a.585.585 0 01-.369-.131.57.57 0 01-.2-.33l-3.672-18.487m6.977-9.97l-6.977 9.97m-3.922 19.627a.838.838 0 00.548-.207.822.822 0 00.275-.514l-.856.72.032.001zm3.922-19.627s0 0 0 0h0zm3.429-40.701c0 2.332-1.911 4.227-4.273 4.227-2.363 0-4.274-1.895-4.274-4.227 0-2.333 1.91-4.228 4.274-4.228 2.362 0 4.273 1.895 4.273 4.228zM79.63 41.06h0a.563.563 0 010-.34s0 0 0 0l.469-1.485s0 0 0 0a.574.574 0 01.527-.401s0 0 0 0l5.935-.26.054-.002.048-.025 9.61-4.876a2.447 2.447 0 011.83.16 2.387 2.387 0 011.3 2.329 2.375 2.375 0 01-.853 1.626 2.426 2.426 0 01-.828.451l-.026.008-.024.014-5.9 3.388h0a8.366 8.366 0 01-5.758.955h0L80.07 41.45a.585.585 0 01-.386-.27h0a.55.55 0 01-.054-.12zm32.816 10.875h0a.564.564 0 00.12-.06h.001a.577.577 0 00.254-.391l-.375.45zm0 0a.589.589 0 01-.347.015s0 0 0 0l-1.52-.4s0 0 0 0a.582.582 0 01-.427-.503h-.001l-.514-5.857-.005-.055-.028-.048-5.331-9.295a2.374 2.374 0 01.641-2.565 2.422 2.422 0 011.742-.63 2.436 2.436 0 011.681.774c.215.232.381.503.49.798l.009.027.015.023 3.671 5.69h0a8.137 8.137 0 011.209 5.65h0l-.91 5.925-.375.45z" fill="#F4F7FA" stroke="#000" stroke-width=".5"/><path d="M95.894 32.8h0a7.403 7.403 0 00-1.654 2.854 7.348 7.348 0 00-.245 3.28v.001l1.069 7.105.004.029-.002.028-.852 10.461a.563.563 0 00.343.568.586.586 0 00.233.048L95.894 32.8zm0 0a7.453 7.453 0 012.714-1.87 7.525 7.525 0 013.264-.523h0l.222.016h.007M95.894 32.8l6.207-2.376m0 0a7.495 7.495 0 013.001.893 7.416 7.416 0 012.367 2.043h0a7.404 7.404 0 011.341 6.022h0a24.144 24.144 0 00.65 12.503h0l1.214 3.73h0a.57.57 0 01-.267.671.588.588 0 01-.253.072h0l-6.052.323-1.511-2.583-.465-.797v3.485l-7.304.388h-.002l-.03.001 7.311-26.75z" fill="#F4F7FA" stroke="#000" stroke-width=".5"/><path d="M103.802 28.952c-.418.239-2.074.397-2.192-.067l-.002-.01c-.082-.34-.014-.695.009-1.044.024-.348-.011-.731-.251-.988-.447-.477-1.242-.224-1.889-.345a1.597 1.597 0 01-.942-.611 1.568 1.568 0 01-.3-1.076c.01-.072.024-.145.04-.217a1.204 1.204 0 00-.267-1.05A1.228 1.228 0 0097 23.12c-.654.037-1.36.233-1.9-.246-.418-.37-.52-1.334-.336-1.86.309-.881 2.286-1.343 3.15-1.597a7.556 7.556 0 016.341 1.03c.545.38 1.055.858 1.287 1.478.233.619.12 1.4-.404 1.808a3.324 3.324 0 01.782 3.247c-.259.825-1.494 1.617-2.118 1.972z" fill="#7247FF"/><path d="M41.37 29.182H12.406c-.373 0-.73-.147-.995-.409a1.387 1.387 0 010-1.97c.264-.262.622-.409.995-.41H41.37c.373.001.731.148.995.41a1.387 1.387 0 010 1.97 1.416 1.416 0 01-.995.409z" fill="#6C63FF"/><path d="M41.37 29.182H12.406c-.373 0-.73-.147-.995-.409a1.387 1.387 0 010-1.97c.264-.262.622-.409.995-.41H41.37c.373.001.731.148.995.41a1.387 1.387 0 010 1.97 1.416 1.416 0 01-.995.409z" fill="url(#paint0_linear)"/><path d="M59.252 30.371H9.524a.185.185 0 01-.13-.053.181.181 0 010-.258.185.185 0 01.13-.053h49.728a.182.182 0 110 .365z" fill="#3F3D56"/><path d="M41.37 40.859H12.407c-.374 0-.732-.147-.996-.409a1.387 1.387 0 010-1.971c.264-.262.622-.409.995-.409H41.37c.374 0 .732.148.995.41a1.387 1.387 0 010 1.97 1.416 1.416 0 01-.995.409z" fill="#6C63FF"/><path d="M41.37 40.859H12.407c-.374 0-.732-.147-.996-.409a1.387 1.387 0 010-1.971c.264-.262.622-.409.995-.409H41.37c.374 0 .732.148.995.41a1.387 1.387 0 010 1.97 1.416 1.416 0 01-.995.409z" fill="url(#paint1_linear)"/><path d="M59.252 42.047H9.524a.185.185 0 01-.13-.053.181.181 0 01.13-.311h49.728a.182.182 0 110 .365z" fill="#3F3D56"/><path d="M41.37 52.535H12.407c-.374 0-.732-.147-.996-.409a1.387 1.387 0 010-1.972c.264-.261.622-.408.995-.408H41.37c.374 0 .732.148.995.409a1.387 1.387 0 010 1.97 1.416 1.416 0 01-.995.41z" fill="#F2F2F2"/><path d="M59.252 53.724H9.524a.185.185 0 01-.13-.053.181.181 0 01.13-.312h49.728c.05 0 .096.02.13.054a.181.181 0 01-.13.311z" fill="#3F3D56"/></g><defs><linearGradient id="paint0_linear" x1="10.828" y1="26.53" x2="43.74" y2="29.16" gradientUnits="userSpaceOnUse"><stop stop-color="#4614E8"/><stop offset="1" stop-color="#BCA7FF"/></linearGradient><linearGradient id="paint1_linear" x1="10.826" y1="38.207" x2="43.74" y2="40.837" gradientUnits="userSpaceOnUse"><stop stop-color="#4614E8"/><stop offset="1" stop-color="#BCA7FF"/></linearGradient><clipPath id="clip0"><path fill="#fff" d="M0 0h136v92H0z"/></clipPath></defs></svg>