<svg width="190" height="92" fill="none" xmlns="http://www.w3.org/2000/svg"><g clip-path="url(#clip0)"><path d="M25.85 73.555h142.895V1.18H25.851v72.374z" fill="#fff"/><path d="M169.923 74.734H24.672V0h145.251v74.734zm-142.894-2.36h140.537V2.36H27.029v70.016z" fill="#E5E5E5"/><path d="M87.543 16.49a5 5 0 015 5v14.565a5 5 0 01-5 5H56.85l-6.594 7.916.753-7.916a3.208 3.208 0 01-3.209-3.208V21.49a5 5 0 015-5h34.742z" fill="url(#paint0_linear)"/><path d="M114.142 17.948v15.75h22.884l4.228 5.075-.483-5.075h2.057v-15.75h-28.686z" fill="#F0F0F0"/><path d="M22.463 81.96l-.92 7.467h-1.594V81.96h2.514z" fill="#F4F7FA" stroke="#000" stroke-width=".5"/><path d="M19.423 91.43v-2.177h3.816s0 0 0 0a2.34 2.34 0 012.335 2.177h-6.151zm26.811-2.504l-1.547.38-1.784-7.25 2.442-.601.89 7.47z" fill="#F4F7FA" stroke="#000" stroke-width=".5"/><path d="M50.627 89.906l-5.973 1.471-.52-2.114 3.704-.912h.001a2.34 2.34 0 012.788 1.555zm-31.9-2.348l.377-1.928.002-.012.002-.013h0V85.6l.002-.017a7.966 7.966 0 01.041-.35c.033-.244.085-.605.166-1.065.16-.919.435-2.234.885-3.813.9-3.159 2.505-7.368 5.32-11.57l.027-.042.01-.048 1.844-9.19.007-.035-.003-.034h0v-.017a4.096 4.096 0 01-.012-.276c-.005-.192-.006-.473.01-.822.03-.7.126-1.67.383-2.757.515-2.174 1.676-4.79 4.252-6.626l1.558-1.073 5.432.311 1.283 7.032 2.659 17.1.03.193.18.017a.208.208 0 01.03.013c.035.02.102.066.185.172.166.215.392.676.518 1.642l.007.054.029.047a5.7 5.7 0 01.863 2.64l.002.036.012.033.235-.085-.235.085h0l.001.002.003.008.011.031a25.882 25.882 0 01.202.584c.132.393.313.946.505 1.585.383 1.276.807 2.882.988 4.24l-.04 2.54-2.487 1.326L38.12 70.8l-.004-.01-.004-.01-4.284-9.473-.272-.601-.194.63.238.074-.238-.074h0v.001l-.002.004-.004.014-.018.056-.07.22a82.962 82.962 0 01-1.327 3.742c-.908 2.378-2.208 5.464-3.78 8.31l-.003.007-.004.008.227.105-.227-.105h0l-.001.002-.002.005-.01.02-.036.079-.139.3-.502 1.087-1.581 3.428c-1.19 2.58-2.487 5.398-2.92 6.35l-.006.015-.005.016-.884 2.916-3.34-.357z" fill="#F4F7FA" stroke="#000" stroke-width=".5"/><path d="M37.535 33.065a4.085 4.085 0 004.084-4.086 4.085 4.085 0 10-4.084 4.086z" fill="#FFB7B7"/><path d="M41.369 28.979a3.835 3.835 0 11-3.834-3.836 3.835 3.835 0 013.834 3.836zM33.489 45.5l.033-.082-.026-.084a14.91 14.91 0 01.14-9.227l.204-.168c1.092-.9 2.08-1.237 2.989-1.114.914.124 1.813.721 2.707 1.828.31.386.671.727 1.075 1.014h0c.154.108.363.365.563.748.196.376.371.848.471 1.357.201 1.023.094 2.148-.675 2.97l-.052.054-.012.074-1.353 7.895-.004.025v.025c.036 1.08-.14 1.705-.422 2.013-.255.278-.663.358-1.314.142-.65-.216-1.471-.71-2.444-1.458-.937-.72-2-1.666-3.166-2.798l1.286-3.214zm16.276 1.033l-4.494-.287.505-1.538 3.21.25.167.013.076-.149a1.247 1.247 0 011.846-.439l.016.012a1.254 1.254 0 01-1.243 2.158l-.04-.017-.043-.003z" fill="#F4F7FA" stroke="#000" stroke-width=".5"/><path d="M39.12 38.935h0l1.481 4.098.05.137.145.024 7.43 1.231-.453 2.773-9.345-1.746-3.087-5.177a2.007 2.007 0 012.746-2.474c.481.226.853.634 1.033 1.134z" fill="#F4F7FA" stroke="#000" stroke-width=".5"/><path d="M30.255 28.083a3.92 3.92 0 003.918-3.92 3.92 3.92 0 10-3.919 3.92z" fill="#7247FF"/><path d="M26.875 27.41a3.918 3.918 0 006.05-2.058A3.922 3.922 0 0129.84 28.7a3.917 3.917 0 01-4.557-4.956 3.922 3.922 0 001.593 3.666z" fill="#7247FF"/><path d="M42.338 27.414c-.684-1.226-.946-1.737-1.828-2.482-.78-.66-1.74-.853-2.513-.229a4.632 4.632 0 00-6.464 3.985 4.638 4.638 0 003.04 4.628 4.632 4.632 0 006.189-4.881c.672-.095.903-.927 1.576-1.021z" fill="#7247FF"/><path d="M163.04 56.755v-.001a1.6 1.6 0 011.954-1.486l.163.037.096-.136 2.334-3.29 1.977.784-3.335 4.564-.025.035-.012.041a1.614 1.614 0 01-1.82 1.127 1.612 1.612 0 01-1.332-1.675z" fill="#F4F7FA" stroke="#000" stroke-width=".5"/><path d="M174.688 46.825l-7.128 9.251-1.784-2.32 4.265-7.177.062-.103-.042-.112-1.741-4.642 2.285-6.095c.343.214 1.184.9 1.337 2.545l.002.027.009.026 2.735 8.6zm-32.879-19.722h.001a1.602 1.602 0 011.33 2.064l-.05.16.128.107 3.099 2.582-.935 1.91-4.29-3.678-.033-.028-.04-.015a1.61 1.61 0 01-.982-1.902 1.609 1.609 0 011.772-1.2z" fill="#F4F7FA" stroke="#000" stroke-width=".5"/><path d="M150.804 39.49l-8.668-7.825 2.45-1.6 6.821 4.809.099.069.115-.033 4.76-1.377 5.897 2.75c-.24.326-.988 1.112-2.639 1.137h-.027l-.026.007-8.782 2.063zm6.273 49.69h-1.948l-1.09-8.837h3.039l-.001 8.838z" fill="#F4F7FA" stroke="#000" stroke-width=".5"/><path d="M153.179 88.99h4.417v2.439h-7.094a2.697 2.697 0 01.776-1.652 2.693 2.693 0 011.901-.788zm13.57.19H164.8l-1.09-8.837h3.039v8.838z" fill="#F4F7FA" stroke="#000" stroke-width=".5"/><path d="M162.85 88.99h4.417v2.439h-7.093a2.697 2.697 0 01.775-1.652 2.687 2.687 0 011.901-.788zm4.755-33.378l-.193 13.554h0l-.195 17.897-3.864-.351-2.153-24.87-.497-.006-2.739 24.856h-4.013l-.447-24.994 1.52-5.323 12.581-.763z" fill="#F4F7FA" stroke="#000" stroke-width=".5"/><path d="M154.499 55.992l-.043-.019-.046-.002-.375-.016 3.022-16.653.009-.052-.012-.052-1.259-5.119s0 0 0 0a.868.868 0 01.539-1.022l2.264-.85.108-.04.039-.108.733-2.016 5.911.637.137 1.516.014.165.158.05c.338.109 1.9.627 3.325 1.38.713.378 1.377.806 1.835 1.26.464.46.671.898.596 1.31-.188 1.036-.844 3.206-1.474 5.176a213.682 213.682 0 01-1.279 3.873l-.011.034-.002.036-.39 9.37-.125.059a24.735 24.735 0 01-2.573.983c-1.671.534-3.912 1.061-6.24 1.061v0h-.004c-1.669.028-3.325-.3-4.857-.962zM166.51 24.14a4.294 4.294 0 11-8.585 0 4.294 4.294 0 014.293-4.295 4.294 4.294 0 014.292 4.295z" fill="#F4F7FA" stroke="#000" stroke-width=".5"/><path d="M165.897 28.54c-.866.922-2.473.427-2.586-.834a1.521 1.521 0 01.002-.294c.058-.558.38-1.065.303-1.655a.86.86 0 00-.159-.406c-.69-.924-2.309.413-2.96-.423-.399-.514.07-1.321-.236-1.895-.405-.757-1.603-.383-2.354-.798-.835-.46-.785-1.744-.235-2.524.671-.951 1.847-1.46 3.009-1.532 1.161-.074 2.315.24 3.399.663 1.232.48 2.454 1.145 3.212 2.229.923 1.318 1.011 3.09.55 4.632-.28.937-1.238 2.083-1.945 2.836z" fill="#7247FF"/><path d="M117.039 86.554l-.504 1.298-6.23-2.423.803-2.067 5.931 3.192z" fill="#F4F7FA" stroke="#000" stroke-width=".5"/><path d="M117.501 85.068h0a2.092 2.092 0 011.104-1.156 2.086 2.086 0 011.433-.09l-1.992 5.128-1.784-.694.081-.21h.001l.701-1.808h0l.456-1.17zm-2.615 2.306c-1.768.19-3.71-.26-5.534-.964h0a23.29 23.29 0 01-2.198-.982h-.001a32.183 32.183 0 01-4.122-2.504 22.56 22.56 0 01-.367-.269l-.094-.072-.024-.018-.006-.004-.001-.001h0l12.347 4.814zm0 0l.697-1.85.234.088-.234-.088.217-.577-10.882-5.995-.019-.01-.018-.014h0v-.001l-.005-.004-.02-.015a5.92 5.92 0 00-.386-.272 6.988 6.988 0 00-1.065-.573c-.873-.371-1.936-.582-2.865-.087h0a93.01 93.01 0 01-2.398 1.21h0a451.32 451.32 0 01-4.864 2.336c-.125.06-.45.254-.758.445-.13.08-.254.158-.352.22l.022.032c.109.154.267.372.466.628.4.511.96 1.167 1.61 1.753.652.589 1.378 1.092 2.105 1.318.715.223 1.426.178 2.095-.318.402-.3.779-.587 1.129-.861h0a57.994 57.994 0 002.488-2.048l.101-.09.025-.022.006-.006.002-.001h0l12.669 4.802z" fill="#F4F7FA" stroke="#000" stroke-width=".5"/><path opacity=".14" d="M114.886 87.374c-1.768.19-3.71-.26-5.534-.964h0a23.29 23.29 0 01-2.198-.982h-.001a32.183 32.183 0 01-4.122-2.504 22.56 22.56 0 01-.367-.269l-.094-.072-.024-.018-.006-.004-.001-.001h0l12.347 4.814zm0 0l.697-1.85.234.088-.234-.088.217-.577-10.882-5.995-.019-.01-.018-.014h0v-.001l-.005-.004-.02-.015a5.92 5.92 0 00-.386-.272 6.988 6.988 0 00-1.065-.573c-.873-.371-1.936-.582-2.865-.087h0a93.01 93.01 0 01-2.398 1.21h0a451.32 451.32 0 01-4.864 2.336c-.125.06-.45.254-.758.445-.13.08-.254.158-.352.22l.022.032c.109.154.267.372.466.628.4.511.96 1.167 1.61 1.753.652.589 1.378 1.092 2.105 1.318.715.223 1.426.178 2.095-.318.402-.3.779-.587 1.129-.861h0a57.994 57.994 0 002.488-2.048l.101-.09.025-.022.006-.006.002-.001h0l12.669 4.802z" fill="#F4F7FA" stroke="#000" stroke-width=".5"/><path d="M86.325 68.486h-8.812a.684.684 0 01-.684-.684v-3.8a5.094 5.094 0 015.09-5.092 5.088 5.088 0 015.09 5.092v3.8a.685.685 0 01-.684.684z" fill="#7247FF"/><path d="M93.905 75.223l-.057-.157a1.174 1.174 0 01.085-.991l-.216-.125.216.125a1.174 1.174 0 01.797-.567l.02-.004c.284-.051.578.003.825.153l.13-.213-.13.213a1.183 1.183 0 01-.136 2.093l-.039.018-.031.03-3.105 2.938-.734-1.329 2.252-2.072.123-.112z" fill="#F4F7FA" stroke="#000" stroke-width=".5"/><path d="M87.191 83.02h0a3.577 3.577 0 01-2.883-1.926h0L80.469 73.7s0 0 0 0a1.872 1.872 0 012.1-2.68 1.87 1.87 0 011.124.793l3.533 7.932.133.298.253-.206 4.706-3.825 2.317.902-4.468 4.935s0 0 0 0a3.62 3.62 0 01-2.976 1.17zm29.433 6.01l-.603 1.254-6.025-2.894.96-2 5.668 3.64z" fill="#F4F7FA" stroke="#000" stroke-width=".5"/><path d="M117.198 87.583h.001a2.08 2.08 0 011.996-1.181c.216.011.428.057.629.134l-2.38 4.96-1.725-.83.097-.202h0l.839-1.748h0l.543-1.133zm-1.686-.251l-10.389-6.814-.019-.012-.016-.015h0l-.001-.001-.004-.004-.018-.017c-.017-.015-.042-.038-.076-.066a7.033 7.033 0 00-1.307-.887c-.842-.438-1.886-.73-2.849-.308h-.001c-.607.265-1.506.633-2.483 1.022h0a448.104 448.104 0 01-5.03 1.956m22.193 5.146l-23.629-5.386m23.629 5.386l-.26.558-.838 1.79c-1.777.054-3.679-.543-5.443-1.386h0a23.243 23.243 0 01-2.116-1.147h-.001a32.079 32.079 0 01-4.263-3.11l-.089-.079-.022-.02-.005-.005h-.001l-.001-.001h0l13.039 3.4zM93.32 82.186l-.09-.234m.09.234l-.09-.234m.09.234l-.339.129-.09.034-.023.009-.006.002h-.001 0l-.09-.233.09.234-.068.025-.071-.014-.889-.18.05-.246m1.348.006c.934-.357 3.13-1.2 5.025-1.954m-5.025 1.954l5.025-1.954m-6.373 1.948l-.05.245-2.508-.508h0l-2.166-.44m4.724.703l-2.508-.508-2.253-.457m.037.263l.078-.041-.115-.222m.037.263l-.087-.018.05-.245m.037.263l-5.117 2.658m5.08-2.921l-5.307 2.757m0 0l.246.043h0v.006l-.004.017a4.597 4.597 0 00-.015.098m-.227-.164l.115.222.112-.058m-.227-.164l20.503.052-.166.129h0l-.002.001-.007.006-.027.02a28.936 28.936 0 01-.521.388c-.482.353-1.252.902-2.223 1.544h-.001c-.37.247-.768.504-1.192.772-3.137 1.974-7.56 4.35-11.299 4.85h0c-1.609.216-2.683-.162-3.41-.813-.734-.66-1.146-1.63-1.361-2.66-.215-1.028-.228-2.09-.185-2.899a14.012 14.012 0 01.118-1.226m16.214-3.904a93.93 93.93 0 002.477-1.019c2.136-.935 4.527 1.33 4.527 1.33l-7.004-.311zM72.049 91.717l.001.014-.003-.013a1.181 1.181 0 01-1.371-1.586c.106-.27.307-.49.566-.621l.038-.02.03-.03 2.949-3.097.8 1.29-2.14 2.185-.117.12.065.153a1.176 1.176 0 01-.818 1.605zM86.47 65.1a3.304 3.304 0 11-3.304-3.304A3.304 3.304 0 0186.47 65.1z" fill="#F4F7FA" stroke="#000" stroke-width=".5"/><path d="M81.853 83.875l.061-.1-.039-.112-3.072-8.714.886-4.433 4.57-.813 3.561 4.335.017.022.022.016.025.02.017.013.018.01c.608.33 1.065.882 1.278 1.54.227.796.031 1.746-.655 2.844h0l-.014.024-.047.075.01.088.239 1.903-7.09 4.958a.474.474 0 01-.198-.215c-.052-.12-.066-.296-.005-.543.06-.247.19-.544.398-.887h0l.018-.03z" fill="#F4F7FA" stroke="#000" stroke-width=".5"/><path d="M84.045 74.722l-4.278 6.412h0l-5.948 8.823-1.75-2.154 4.907-8.105.015-.024.01-.028 2.33-7.207-.166-.053.166.053a2.645 2.645 0 013.666-1.566 2.644 2.644 0 011.048 3.849z" fill="#F4F7FA" stroke="#000" stroke-width=".5"/><path d="M88.212 64.381h-5.388l-.055-.774-.276.774h-.83l-.11-1.534-.547 1.534h-1.605v-.076a4.034 4.034 0 014.026-4.028h.76a4.03 4.03 0 014.025 4.028v.076z" fill="#7247FF"/><path d="M82.78 69.195a.69.69 0 01-.12-.011l-3.946-.696v-6.524h4.343l-.108.125c-1.496 1.746-.369 4.576.436 6.108a.674.674 0 01-.053.716.68.68 0 01-.552.282z" fill="#7247FF"/><path d="M141.725 57.507v9.19h-40.694l-5.876 7.054.67-7.054h-2.858v-9.19h48.758z" fill="#F0F0F0"/><path d="M109.885 63.753a1.665 1.665 0 100-3.33 1.665 1.665 0 000 3.33zm-5.618 0a1.665 1.665 0 10-.002-3.33 1.665 1.665 0 00.002 3.33zm-5.619 0a1.665 1.665 0 10-.001-3.33 1.665 1.665 0 000 3.33z" fill="#fff"/><path d="M189.792 91.862H.208a.208.208 0 110-.417h189.584a.208.208 0 010 .417z" fill="#CACACA"/></g><defs><linearGradient id="paint0_linear" x1="47.56" y1="18.082" x2="94.19" y2="18.532" gradientUnits="userSpaceOnUse"><stop stop-color="#4614E8"/><stop offset="1" stop-color="#BCA7FF"/></linearGradient><clipPath id="clip0"><path fill="#fff" d="M0 0h190v92H0z"/></clipPath></defs></svg>