<svg width="169" height="43" fill="none" xmlns="http://www.w3.org/2000/svg"><path d="M20.806 37.746h10.92V41h-14.24V0h3.32v37.746zM3.32 0H0v41h3.32V0zm34.308 20.536c0 9.473 7.895 17.21 17.56 17.21V41c-11.584 0-20.954-9.183-20.954-20.464C34.308 9.183 43.678 0 55.261 0v3.254c-9.739 0-17.633 7.737-17.633 17.282z" fill="#3B1D8F"/><path d="M57.622 20.464c0 1.301-1.033 2.314-2.36 2.314-1.329 0-2.362-1.013-2.362-2.314 0-1.302 1.033-2.314 2.361-2.314 1.255 0 2.361 1.085 2.361 2.314zM80.61 16.12c-.893 0-1.643-.29-2.25-.87-.607-.58-.967-1.32-1.08-2.22h-1.15V16H74.9V9h1.23v2.93h1.16c.12-.88.483-1.607 1.09-2.18.613-.58 1.363-.87 2.25-.87.98 0 1.783.347 2.41 1.04.633.693.95 1.553.95 2.58 0 1.02-.317 1.88-.95 2.58-.633.693-1.443 1.04-2.43 1.04zm-1.5-1.83c.4.48.907.72 1.52.72s1.117-.237 1.51-.71c.393-.48.59-1.08.59-1.8 0-.707-.2-1.3-.6-1.78-.4-.48-.907-.72-1.52-.72s-1.117.237-1.51.71c-.387.473-.58 1.07-.58 1.79 0 .707.197 1.303.59 1.79zM86.476 16V9h2.76c.813 0 1.46.213 1.94.64.48.427.72 1 .72 1.72 0 .753-.267 1.34-.8 1.76-.526.42-1.193.63-2 .63h-1.39V16h-1.23zm1.23-3.36h1.43c.46 0 .827-.117 1.1-.35.273-.233.41-.54.41-.92 0-.4-.136-.707-.41-.92-.267-.22-.633-.33-1.1-.33h-1.43v2.52zm6.45 3.36V9h1.21v5.11L98.906 9h1.15v7h-1.21v-5.1l-3.53 5.1h-1.16zm7.915 1.5v-2.6h.68c.593-1.173.89-2.81.89-4.91V9h4.88v5.9h.87l-.17 2.6h-1.02V16h-4.93l-.12 1.5h-1.08zm1.99-2.6h3.23v-4.79h-2.47v.8c0 1.633-.254 2.963-.76 3.99zm7.427 1.1V9h1.21v5.11l3.54-5.11h1.15v7h-1.21v-5.1l-3.53 5.1h-1.16zm12.825 0v-2.77c-.754.393-1.417.59-1.99.59-.707 0-1.27-.187-1.69-.56-.414-.38-.62-.937-.62-1.67V9h1.23v2.28c0 .447.11.793.33 1.04.22.24.543.36.97.36.633 0 1.223-.183 1.77-.55V9h1.23v7h-1.23zm4.028 0V9h5.19v1.1h-3.96v1.82h3.51v1.1h-3.51v1.88h4.01V16h-5.24zm10.95.12c-1.014 0-1.86-.347-2.54-1.04-.68-.7-1.02-1.56-1.02-2.58 0-1.013.34-1.87 1.02-2.57.68-.7 1.543-1.05 2.59-1.05.606 0 1.12.093 1.54.28a4.22 4.22 0 011.2.81l-.79.91c-.627-.58-1.28-.87-1.96-.87-.667 0-1.22.24-1.66.72-.434.48-.65 1.07-.65 1.77 0 .693.22 1.283.66 1.77.44.48.99.72 1.65.72.4 0 .753-.073 1.06-.22.306-.153.623-.383.95-.69l.79.8c-.394.413-.81.723-1.25.93-.44.207-.97.31-1.59.31zm5.132-.12V9h1.23v3.52l3.33-3.52h1.51l-2.91 3.01 3.04 3.99h-1.49l-2.39-3.15-1.09 1.12V16h-1.23zm8.247 0V9h1.21v5.11L157.42 9h1.15v7h-1.21v-5.1l-3.53 5.1h-1.16zm12.754-7.92c-.28.247-.63.37-1.05.37-.42 0-.77-.123-1.05-.37-.28-.253-.456-.597-.53-1.03l.75-.14c.127.453.404.68.83.68.414 0 .69-.227.83-.68l.74.14c-.066.433-.24.777-.52 1.03zm-4.04 7.92V9h1.21v5.11l3.54-5.11h1.15v7h-1.21v-5.1l-3.53 5.1h-1.16zM74.9 36v-7h5.71v7h-1.23v-5.89h-3.25V36H74.9zm14.48-.94c-.694.707-1.57 1.06-2.63 1.06-1.06 0-1.934-.35-2.62-1.05-.687-.7-1.03-1.557-1.03-2.57 0-1 .346-1.853 1.04-2.56.693-.707 1.57-1.06 2.63-1.06 1.06 0 1.933.35 2.62 1.05.686.7 1.03 1.557 1.03 2.57 0 1-.347 1.853-1.04 2.56zm-4.32-.79c.453.48 1.023.72 1.71.72.686 0 1.25-.24 1.69-.72.446-.48.67-1.07.67-1.77 0-.693-.227-1.28-.68-1.76-.447-.487-1.014-.73-1.7-.73-.687 0-1.254.24-1.7.72-.44.48-.66 1.07-.66 1.77 0 .693.223 1.283.67 1.77zm7.846 1.81c-.287 0-.57-.037-.85-.11l.12-1.01c.12.04.253.06.4.06.16 0 .297-.023.41-.07.12-.053.243-.173.37-.36.133-.187.237-.44.31-.76.08-.327.147-.78.2-1.36a23.3 23.3 0 00.08-2.09V29h4.8v7h-1.23v-5.89h-2.42v.63c0 1.087-.047 1.99-.14 2.71-.094.713-.24 1.26-.44 1.64-.2.373-.427.633-.68.78-.247.14-.557.21-.93.21zm8.646-.08v-7h1.21v5.11l3.54-5.11h1.15v7h-1.21v-5.1l-3.53 5.1h-1.16zm11.965.12c-1.013 0-1.86-.347-2.54-1.04-.68-.7-1.02-1.56-1.02-2.58 0-1.013.34-1.87 1.02-2.57.68-.7 1.544-1.05 2.59-1.05.607 0 1.12.093 1.54.28a4.18 4.18 0 011.2.81l-.79.91c-.626-.58-1.28-.87-1.96-.87-.666 0-1.22.24-1.66.72-.433.48-.65 1.07-.65 1.77 0 .693.22 1.283.66 1.77.44.48.99.72 1.65.72.4 0 .754-.073 1.06-.22.307-.153.624-.383.95-.69l.79.8c-.393.413-.81.723-1.25.93-.44.207-.97.31-1.59.31z" fill="#3B1D8F"/></svg>