<svg width="159" height="303" fill="none" xmlns="http://www.w3.org/2000/svg"><path d="M132.5 303h-106C11.894 303 0 291.13 0 276.554V26.446C0 11.87 11.894 0 26.5 0h106C147.106 0 159 11.87 159 26.446v250.108C159 291.13 147.106 303 132.5 303zM26.5 1.64c-13.702 0-24.857 11.132-24.857 24.806v250.108c0 13.674 11.155 24.806 24.857 24.806h106c13.702 0 24.857-11.132 24.857-24.806V26.446c0-13.674-11.155-24.806-24.857-24.806h-106z" fill="#DEE6EF"/><path d="M132.126 298.088H26.873c-12.035 0-21.826-9.81-21.826-21.867V26.898c0-12.057 9.791-21.867 21.826-21.867h105.253c12.035 0 21.826 9.81 21.826 21.867v249.323c0 12.057-9.791 21.867-21.826 21.867zM26.873 6.258c-11.362 0-20.602 9.257-20.602 20.64v249.323c0 11.383 9.24 20.641 20.602 20.641h105.253c11.362 0 20.602-9.258 20.602-20.641V26.898c0-11.383-9.24-20.64-20.602-20.64H26.873z" fill="#DEE6EF"/><rect x="12.619" y="14.405" width="135.024" height="275.095" rx="10.794" fill="#34449C"/></svg>