<svg width="231" height="161" fill="none" xmlns="http://www.w3.org/2000/svg"><g clip-path="url(#clip0)"><path d="M104.745 65.254H0V0h104.745v65.254z" fill="#fff"/><path d="M104.745 65.254H0V0h104.745v65.254zM.478 64.778h103.789V.476H.478v64.302z" fill="#3F3D56"/><path d="M91.95 155.634H32.166V90.379H91.95v65.255z" fill="#fff"/><path d="M91.95 155.634H32.166V90.379H91.95v65.255zm-59.307-.477h58.83V90.856h-58.83v64.301z" fill="#3F3D56"/><path d="M83.82 149.471H71.384v.502H83.82v-.502zm0 1.506H71.384v.502H83.82v-.502zm0 1.506H71.384v.502H83.82v-.502z" fill="#3F3D56"/><path d="M62.058 102.049v5.24c3.121 0 6.173.922 8.768 2.649a15.732 15.732 0 015.814 7.054 15.656 15.656 0 01.898 9.081 15.697 15.697 0 01-4.32 8.048l3.72 3.705a20.93 20.93 0 005.76-10.731 20.875 20.875 0 00-1.198-12.108 20.976 20.976 0 00-7.75-9.406 21.106 21.106 0 00-11.692-3.532z" fill="#E6E6E6"/><path d="M76.939 137.826l-3.72-3.705a15.824 15.824 0 01-20.71 1.398l-3.185 4.173a21.104 21.104 0 0014.159 4.224 21.085 21.085 0 0013.456-6.09z" fill="#575A89"/><path d="M46.274 123.007c0-2.064.408-4.108 1.202-6.015a15.722 15.722 0 013.421-5.1 15.798 15.798 0 015.12-3.407 15.839 15.839 0 016.04-1.196v-5.24c-4.405 0-8.7 1.377-12.277 3.937a20.959 20.959 0 00-7.666 10.33 20.875 20.875 0 00-.173 12.844 20.954 20.954 0 007.383 10.532l3.184-4.172a15.71 15.71 0 01-4.592-5.528 15.638 15.638 0 01-1.642-6.985z" fill="#6C63FF"/><path d="M46.274 123.007c0-2.064.408-4.108 1.202-6.015a15.722 15.722 0 013.421-5.1 15.798 15.798 0 015.12-3.407 15.839 15.839 0 016.04-1.196v-5.24c-4.405 0-8.7 1.377-12.277 3.937a20.959 20.959 0 00-7.666 10.33 20.875 20.875 0 00-.173 12.844 20.954 20.954 0 007.383 10.532l3.184-4.172a15.71 15.71 0 01-4.592-5.528 15.638 15.638 0 01-1.642-6.985z" fill="url(#paint0_linear)"/><path d="M180.434 115.148h-59.786V49.894h59.786v65.254z" fill="#fff"/><path d="M140.019 89.784h-10.762v17.147h10.762V89.784z" fill="#575A89"/><path d="M155.563 78.115h-10.762v28.816h10.762V78.115z" fill="#E6E6E6"/><path d="M171.107 64.54h-10.761v42.391h10.761V64.54z" fill="#6C63FF"/><path d="M171.107 64.54h-10.761v42.391h10.761V64.54z" fill="url(#paint1_linear)"/><path d="M174.695 107.408h-48.307V57.633h.478v49.298h47.829v.477z" fill="#3F3D56"/><path d="M230.725 160.75h-51.327a.027.027 0 01-.018-.007.023.023 0 010-.033.027.027 0 01.018-.007h51.327c.007 0 .014.003.018.007a.023.023 0 010 .033.027.027 0 01-.018.007z" fill="#fff" stroke="#000" stroke-width=".5"/><path d="M90.198 51.607H14.547a.237.237 0 01-.237-.236v-36.11a.235.235 0 01.236-.236.237.237 0 01.237.236v35.874h75.415a.238.238 0 01.22.146.236.236 0 01-.22.326z" fill="#3F3D56"/><path d="M30.71 49.014h-6.88a.705.705 0 01-.703-.7v-9.446a.699.699 0 01.702-.7h6.881a.705.705 0 01.703.7v9.446a.699.699 0 01-.703.7z" fill="url(#paint2_linear)"/><path d="M43.258 49.014h-6.88a.705.705 0 01-.703-.7V29.908a.699.699 0 01.702-.7h6.881a.705.705 0 01.703.7v18.406a.699.699 0 01-.703.7z" fill="url(#paint3_linear)"/><path d="M55.806 49.014h-6.88a.705.705 0 01-.704-.7v-9.446a.7.7 0 01.703-.7h6.881a.705.705 0 01.703.7v9.446a.7.7 0 01-.703.7z" fill="url(#paint4_linear)"/><path d="M68.354 49.013h-6.88a.69.69 0 01-.703-.668V26.34a.684.684 0 01.702-.668h6.881a.69.69 0 01.703.668v22.005a.684.684 0 01-.703.668z" fill="url(#paint5_linear)"/><path d="M80.902 49.013h-6.88a.705.705 0 01-.703-.7V20.006a.699.699 0 01.703-.7h6.88a.705.705 0 01.703.7v28.309a.699.699 0 01-.703.7z" fill="url(#paint6_linear)"/><path d="M27.27 35.339c.784 0 1.42-.634 1.42-1.415s-.636-1.415-1.42-1.415c-.785 0-1.42.634-1.42 1.415s.635 1.415 1.42 1.415zm12.548-9.196c.784 0 1.42-.633 1.42-1.414 0-.782-.636-1.415-1.42-1.415-.785 0-1.42.633-1.42 1.415 0 .78.635 1.414 1.42 1.414zm12.548 9.196c.784 0 1.42-.634 1.42-1.415s-.636-1.415-1.42-1.415c-.785 0-1.42.634-1.42 1.415s.635 1.415 1.42 1.415zm12.548-13.675c.784 0 1.42-.634 1.42-1.415s-.636-1.415-1.42-1.415c-.785 0-1.42.634-1.42 1.415s.635 1.415 1.42 1.415zm12.548-5.188c.784 0 1.42-.633 1.42-1.414 0-.782-.636-1.415-1.42-1.415-.785 0-1.42.633-1.42 1.415 0 .78.635 1.414 1.42 1.414z" fill="#3F3D56"/><path d="M52.395 34.24l-12.576-9.38-12.406 9.254-.284-.378 12.69-9.466 12.518 9.338 12.44-13.557.05-.02 12.547-5.035.177.438-12.498 5.015L52.395 34.24z" fill="#3F3D56"/><path d="M176.372 89.628l-.028-.017a2.296 2.296 0 011.884-4.146l.041.013.043-.002 8.022-.32 2.124 3.463-8.532-.284-.178-.006-.064.166a2.273 2.273 0 01-1.391 1.339 2.282 2.282 0 01-1.921-.206zm50.407 19.517l-.001.001a2.3 2.3 0 01-3.024.399 2.291 2.291 0 01-.753-2.953l.02-.039.006-.042 1.088-7.947 3.786-1.483-1.774 8.342-.037.175.153.091a2.29 2.29 0 011.076 1.603 2.282 2.282 0 01-.54 1.853zm-21.135 34.36l-.001 11.401-2.617-.001-1.407-11.4h4.025z" fill="#fff" stroke="#000" stroke-width=".5"/><path d="M196.975 157.896a3.635 3.635 0 011.06-2.437 3.632 3.632 0 012.564-1.061h0l5.832.001v3.498l-9.456-.001zm23.782-14.391v11.401l-2.618-.001-1.407-11.4h4.025z" fill="#fff" stroke="#000" stroke-width=".5"/><path d="M212.089 157.896a3.613 3.613 0 011.06-2.437 3.621 3.621 0 012.563-1.061h.001l5.831.001v3.498l-9.455-.001zm-9.857-50.479c7.55-2.711 13.762-2.492 19.025.613l.736 39.17h0a.874.874 0 01-.253.635.88.88 0 01-.631.265h-3.686a.891.891 0 01-.867-.713s0 0 0 0l-5.021-25.52a.625.625 0 00-.64-.506.624.624 0 00-.6.551l-8.063-14.495zm0 0l-1.226 40.191s0 0 0 0a.885.885 0 00.847.909m.379-41.1l-.379 41.1m0 0h.001l4.369.175h.036a.887.887 0 00.878-.776v-.001l3.158-26.002-8.442 26.604zm14.551-82.854a5.933 5.933 0 01-5.936 5.931 5.934 5.934 0 01-5.937-5.93 5.934 5.934 0 015.937-5.932 5.933 5.933 0 015.936 5.931zm-34.783 22.644h0a.884.884 0 010-.527l.641-2.052s0 0 0 0a.882.882 0 01.805-.619s0 0 0 0l8.116-.358.054-.003.049-.024 13.15-6.735a3.402 3.402 0 014.405 3.532 3.391 3.391 0 01-1.199 2.311 3.405 3.405 0 01-1.164.64l-.026.008-.024.014-8.07 4.677h0a11.44 11.44 0 01-7.936 1.329h-.001l-8.126-1.591s0 0 0 0h-.001a.884.884 0 01-.338-.145l-.144.205.144-.205a.885.885 0 01-.251-.27h0a.913.913 0 01-.084-.187zm44.998 15.073h-.001a.886.886 0 01-.527.023s0 0 0 0l-2.078-.553s0 0 0 0a.885.885 0 01-.654-.777s0 0 0 0l-.704-8.086-.005-.054-.027-.048-7.295-12.838a3.401 3.401 0 01.898-3.653 3.401 3.401 0 014.809.204c.303.33.537.715.69 1.135l.009.025.015.024 5.021 7.856h0a11.418 11.418 0 011.667 7.864h0l-1.245 8.18a.883.883 0 01-.389.606h0a.88.88 0 01-.184.092z" fill="#fff" stroke="#000" stroke-width=".5"/><path d="M203.885 76.809h0a10.329 10.329 0 00-2.622 8.549h0l1.463 9.809.004.028-.003.029-1.165 14.44a.891.891 0 00.231.669.88.88 0 00.649.285l1.443-33.81zm0 0a10.287 10.287 0 018.248-3.332h0m-8.248 3.332l8.248-3.332m0 0l.305.022h.009m-.314-.022l.314.022m0 0a10.268 10.268 0 017.407 4.09h0a10.398 10.398 0 011.851 8.39h0a33.539 33.539 0 00.888 17.211h0l1.659 5.149h0a.88.88 0 01-.793 1.151h0l-8.332.448-2.095-3.615-.466-.805v4.557l-10.076.541h-.002a.65.65 0 01-.046.002L212.447 73.5z" fill="#fff" stroke="#000" stroke-width=".5"/><path d="M205.449 63.265a12.091 12.091 0 00-.688.062 5.6 5.6 0 01-.649.035c-.41-.009-.77-.097-1.079-.374l-.167.186.167-.186c-.222-.198-.387-.59-.459-1.055-.07-.46-.041-.93.068-1.244.081-.234.282-.465.594-.687.309-.22.704-.417 1.133-.591.677-.275 1.409-.482 1.984-.645l.431-.124a9.99 9.99 0 018.459 1.386c.731.515 1.378 1.139 1.669 1.922.292.785.135 1.736-.472 2.214l-.215.17.188.198a4.37 4.37 0 011.012 4.237c-.155.496-.616 1.015-1.182 1.485-.558.464-1.18.852-1.6 1.094-.106.06-.321.13-.61.185-.282.055-.61.091-.925.099a3.1 3.1 0 01-.819-.071c-.235-.062-.274-.136-.277-.15l-.003-.012s0 0 0 0a2.214 2.214 0 01-.041-.643c.006-.115.017-.232.028-.353a36.548 36.548 0 00.032-.369c.033-.493-.006-1.116-.409-1.55-.377-.408-.892-.487-1.364-.503a11.214 11.214 0 00-.472-.003h-.239a3.629 3.629 0 01-.642-.046 1.933 1.933 0 01-1.499-2.057c.011-.087.029-.178.05-.273h0a1.935 1.935 0 00-1.134-2.188 1.93 1.93 0 00-.87-.15zm0 0h.001l.014.25-.015-.25s0 0 0 0z" fill="#7247FF" stroke="#000" stroke-width=".5"/></g><defs><linearGradient id="paint0_linear" x1="40.9" y1="103.894" x2="62.834" y2="103.98" gradientUnits="userSpaceOnUse"><stop stop-color="#4614E8"/><stop offset="1" stop-color="#BCA7FF"/></linearGradient><linearGradient id="paint1_linear" x1="162.355" y1="64.509" x2="179.678" y2="68.504" gradientUnits="userSpaceOnUse"><stop stop-color="#4614E8"/><stop offset="1" stop-color="#BCA7FF"/></linearGradient><linearGradient id="paint2_linear" x1="24.674" y1="38.16" x2="34.155" y2="44.74" gradientUnits="userSpaceOnUse"><stop stop-color="#4614E8"/><stop offset="1" stop-color="#BCA7FF"/></linearGradient><linearGradient id="paint3_linear" x1="37.222" y1="29.194" x2="49.496" y2="33.859" gradientUnits="userSpaceOnUse"><stop stop-color="#4614E8"/><stop offset="1" stop-color="#BCA7FF"/></linearGradient><linearGradient id="paint4_linear" x1="49.77" y1="38.16" x2="59.251" y2="44.74" gradientUnits="userSpaceOnUse"><stop stop-color="#4614E8"/><stop offset="1" stop-color="#BCA7FF"/></linearGradient><linearGradient id="paint5_linear" x1="62.318" y1="25.654" x2="75.042" y2="29.758" gradientUnits="userSpaceOnUse"><stop stop-color="#4614E8"/><stop offset="1" stop-color="#BCA7FF"/></linearGradient><linearGradient id="paint6_linear" x1="74.866" y1="19.284" x2="88.066" y2="22.629" gradientUnits="userSpaceOnUse"><stop stop-color="#4614E8"/><stop offset="1" stop-color="#BCA7FF"/></linearGradient><clipPath id="clip0"><path fill="#fff" d="M0 0h231v161H0z"/></clipPath></defs></svg>